<svg width="31" height="17" viewBox="0 0 31 17" fill="none" xmlns="http://www.w3.org/2000/svg">
<path d="M3.37683 1.43986C3.2376 1.30829 3.07382 1.20544 2.89484 1.13717C2.71586 1.06889 2.52519 1.03654 2.33371 1.04196C2.14223 1.04737 1.95369 1.09045 1.77885 1.16873C1.60402 1.24701 1.44632 1.35897 1.31475 1.49819C1.18318 1.63742 1.08032 1.8012 1.01205 1.98018C0.943778 2.15916 0.911426 2.34984 0.916843 2.54132C0.92226 2.7328 0.965339 2.92134 1.04362 3.09617C1.1219 3.27101 1.23385 3.42871 1.37308 3.56028L14.4981 15.9561C14.7688 16.2121 15.1273 16.3547 15.5 16.3547C15.8726 16.3547 16.2311 16.2121 16.5018 15.9561L29.6283 3.56028C29.7706 3.42958 29.8855 3.27191 29.9663 3.09643C30.0471 2.92096 30.0923 2.73117 30.0991 2.5381C30.106 2.34502 30.0744 2.15251 30.0062 1.97174C29.9381 1.79097 29.8347 1.62554 29.702 1.48507C29.5694 1.34461 29.4101 1.23189 29.2336 1.15349C29.057 1.07508 28.8666 1.03253 28.6735 1.02833C28.4803 1.02412 28.2883 1.05833 28.1084 1.12898C27.9286 1.19963 27.7646 1.3053 27.626 1.43986L15.5 12.8907L3.37683 1.43986Z" fill="#2D2D2D" stroke="#2D2D2D"/>
</svg>
